<svg width="22" height="22" viewBox="0 0 22 22" fill="none" xmlns="http://www.w3.org/2000/svg">
<path d="M7.10057 16.417L11.0006 12.517L14.9006 16.417L16.4172 14.9003L12.5172 11.0003L16.4172 7.10033L14.9006 5.58366L11.0006 9.48366L7.10057 5.58366L5.5839 7.10033L9.4839 11.0003L5.5839 14.9003L7.10057 16.417ZM11.0006 21.8337C9.50196 21.8337 8.09362 21.5493 6.77557 20.9805C5.45751 20.4118 4.31099 19.6399 3.33599 18.6649C2.36099 17.6899 1.58911 16.5434 1.02036 15.2253C0.451611 13.9073 0.167236 12.4989 0.167236 11.0003C0.167236 9.50171 0.451611 8.09338 1.02036 6.77532C1.58911 5.45727 2.36099 4.31074 3.33599 3.33574C4.31099 2.36074 5.45751 1.58887 6.77557 1.02012C8.09362 0.451367 9.50196 0.166992 11.0006 0.166992C12.4992 0.166992 13.9075 0.451367 15.2256 1.02012C16.5436 1.58887 17.6902 2.36074 18.6652 3.33574C19.6402 4.31074 20.412 5.45727 20.9808 6.77532C21.5495 8.09338 21.8339 9.50171 21.8339 11.0003C21.8339 12.4989 21.5495 13.9073 20.9808 15.2253C20.412 16.5434 19.6402 17.6899 18.6652 18.6649C17.6902 19.6399 16.5436 20.4118 15.2256 20.9805C13.9075 21.5493 12.4992 21.8337 11.0006 21.8337Z" fill="#FF6868"/>
</svg>
