<svg width="23" height="23" viewBox="0 0 23 23" fill="none" xmlns="http://www.w3.org/2000/svg">
<path d="M9.98335 16.4837L17.6209 8.84616L16.1042 7.32949L9.98335 13.4503L6.89585 10.3628L5.37919 11.8795L9.98335 16.4837ZM11.5 22.3337C10.0014 22.3337 8.59308 22.0493 7.27502 21.4805C5.95696 20.9118 4.81044 20.1399 3.83544 19.1649C2.86044 18.1899 2.08856 17.0434 1.51981 15.7253C0.951062 14.4073 0.666687 12.9989 0.666687 11.5003C0.666687 10.0017 0.951062 8.59338 1.51981 7.27532C2.08856 5.95727 2.86044 4.81074 3.83544 3.83574C4.81044 2.86074 5.95696 2.08887 7.27502 1.52012C8.59308 0.951367 10.0014 0.666992 11.5 0.666992C12.9986 0.666992 14.407 0.951367 15.725 1.52012C17.0431 2.08887 18.1896 2.86074 19.1646 3.83574C20.1396 4.81074 20.9115 5.95727 21.4802 7.27532C22.049 8.59338 22.3334 10.0017 22.3334 11.5003C22.3334 12.9989 22.049 14.4073 21.4802 15.7253C20.9115 17.0434 20.1396 18.1899 19.1646 19.1649C18.1896 20.1399 17.0431 20.9118 15.725 21.4805C14.407 22.0493 12.9986 22.3337 11.5 22.3337Z" fill="#73D2A4"/>
</svg>
