<svg width="107" height="46" viewBox="0 0 107 46" fill="none" xmlns="http://www.w3.org/2000/svg">
<path d="M4.5812 3.24161C5.44548 2.45689 5.80758 1.6919 6.33029 0V4.63087H0.5C2.47073 4.46009 3.37741 4.16883 4.5812 3.24161Z" fill="#FFF8BA"/>
<rect width="5.83029" height="1.54362" transform="matrix(1 0 0 -1 0.5 6.17383)" fill="#FFF8BA"/>
<path d="M0.5 10.4971H6.33029L6.33029 6.17492H0.5C2.80002 7.78781 3.0575 8.72571 0.5 10.4971Z" fill="#FFF8BA"/>
<rect width="5.83029" height="1.54362" transform="matrix(1 0 0 -1 0.5 12.04)" fill="#FFF8BA"/>
<path d="M0.5 16.3623H6.33029L6.33029 12.0402H0.5C2.80002 13.653 3.0575 14.5909 0.5 16.3623Z" fill="#FFF8BA"/>
<rect width="5.83029" height="1.54362" transform="matrix(1 0 0 -1 0.5 17.9062)" fill="#FFF8BA"/>
<path d="M0.5 22.2285H6.33029L6.33029 17.9064H0.5C2.80002 19.5193 3.0575 20.4572 0.5 22.2285Z" fill="#FFF8BA"/>
<rect width="5.83029" height="1.54362" transform="matrix(1 0 0 -1 0.5 23.7715)" fill="#FFF8BA"/>
<path d="M0.5 28.0938H6.33029L6.33029 23.7716H0.5C2.80002 25.3845 3.0575 26.3224 0.5 28.0938Z" fill="#FFF8BA"/>
<rect width="5.83029" height="1.54362" transform="matrix(1 0 0 -1 0.5 29.6377)" fill="#FFF8BA"/>
<path d="M0.5 33.96H6.33029L6.33029 29.6378H0.5C2.80002 31.2507 3.0575 32.1886 0.5 33.96Z" fill="#FFF8BA"/>
<rect width="5.83029" height="1.54362" transform="matrix(1 0 0 -1 0.5 35.5029)" fill="#FFF8BA"/>
<path d="M0.5 39.8262H6.33029L6.33029 35.504H0.5C2.80002 37.1169 3.0575 38.0548 0.5 39.8262Z" fill="#FFF8BA"/>
<rect width="5.83029" height="1.54362" transform="matrix(1 0 0 -1 0.5 41.3691)" fill="#FFF8BA"/>
<path d="M4.5812 42.7584C5.44548 43.5431 5.80758 44.3081 6.33029 46V41.3691H0.5C2.47073 41.5399 3.37741 41.8312 4.5812 42.7584Z" fill="#FFF8BA"/>
<path d="M5.5 0C43.3809 0 64.6191 0 102.5 0V46H5.5V0Z" fill="#FFF8BA"/>
<line x1="15.5" y1="40" x2="93.5" y2="40" stroke="#FF6868" stroke-width="2" stroke-linecap="round" stroke-dasharray="4 4 4 4"/>
<line x1="15.5" y1="6" x2="93.5" y2="6" stroke="#FF6868" stroke-width="2" stroke-linecap="round" stroke-dasharray="4 4 4 4"/>
<line x1="97.5039" y1="9.99609" x2="97.6131" y2="37.9959" stroke="#FF6868" stroke-width="2" stroke-linecap="round" stroke-dasharray="4 4 4 4"/>
<line x1="11.5039" y1="8.99609" x2="11.6131" y2="36.9959" stroke="#FF6868" stroke-width="2" stroke-linecap="round" stroke-dasharray="4 4 4 4"/>
<path d="M35.8665 23.7C35.8665 24.588 36.0645 25.368 36.4605 26.04C36.8685 26.712 37.3965 27.234 38.0445 27.606C38.7045 27.966 39.4185 28.146 40.1865 28.146C40.7865 28.146 41.3265 28.068 41.8065 27.912C42.2865 27.756 42.7185 27.546 43.1025 27.282C43.4985 27.006 43.8405 26.7 44.1285 26.364V28.884C43.6005 29.316 43.0305 29.646 42.4185 29.874C41.8065 30.102 41.0385 30.216 40.1145 30.216C39.1905 30.216 38.3265 30.06 37.5225 29.748C36.7305 29.436 36.0405 28.986 35.4525 28.398C34.8645 27.81 34.4025 27.12 34.0665 26.328C33.7425 25.524 33.5805 24.648 33.5805 23.7C33.5805 22.752 33.7425 21.882 34.0665 21.09C34.4025 20.286 34.8645 19.59 35.4525 19.002C36.0405 18.414 36.7305 17.964 37.5225 17.652C38.3265 17.34 39.1905 17.184 40.1145 17.184C41.0385 17.184 41.8065 17.298 42.4185 17.526C43.0305 17.754 43.6005 18.084 44.1285 18.516V21.036C43.8405 20.7 43.4985 20.4 43.1025 20.136C42.7185 19.86 42.2865 19.644 41.8065 19.488C41.3265 19.332 40.7865 19.254 40.1865 19.254C39.4185 19.254 38.7045 19.44 38.0445 19.812C37.3965 20.172 36.8685 20.688 36.4605 21.36C36.0645 22.02 35.8665 22.8 35.8665 23.7ZM46.7458 17.4H48.8698V28.092H53.8738V30H46.7458V17.4ZM55.3218 17.4H57.4458V25.77C57.4458 26.55 57.6498 27.18 58.0578 27.66C58.4778 28.128 59.0958 28.362 59.9118 28.362C60.7158 28.362 61.3278 28.128 61.7478 27.66C62.1678 27.18 62.3778 26.55 62.3778 25.77V17.4H64.5018V25.86C64.5018 26.556 64.3878 27.18 64.1598 27.732C63.9438 28.272 63.6318 28.734 63.2238 29.118C62.8158 29.502 62.3298 29.796 61.7658 30C61.2018 30.204 60.5838 30.306 59.9118 30.306C59.2398 30.306 58.6218 30.204 58.0578 30C57.4938 29.796 57.0018 29.502 56.5818 29.118C56.1738 28.734 55.8618 28.272 55.6458 27.732C55.4298 27.18 55.3218 26.556 55.3218 25.86V17.4ZM68.5383 30V28.128H74.8923V30H68.5383ZM68.5383 19.272V17.4H74.8923V19.272H68.5383ZM68.5383 24.168V22.332H74.5323V24.168H68.5383ZM67.2243 17.4H69.3123V30H67.2243V17.4Z" fill="#FF6868"/>
<path d="M102.919 3.24161C102.055 2.45689 101.692 1.6919 101.17 0V4.63087H107C105.029 4.46009 104.123 4.16883 102.919 3.24161Z" fill="#FFF8BA"/>
<rect x="107" y="6.17383" width="5.83029" height="1.54362" transform="rotate(180 107 6.17383)" fill="#FFF8BA"/>
<path d="M107 10.4971H101.17V6.17492L107 6.17492C104.7 7.78781 104.442 8.72571 107 10.4971Z" fill="#FFF8BA"/>
<rect x="107" y="12.04" width="5.83029" height="1.54362" transform="rotate(180 107 12.04)" fill="#FFF8BA"/>
<path d="M107 16.3623H101.17V12.0402H107C104.7 13.653 104.442 14.5909 107 16.3623Z" fill="#FFF8BA"/>
<rect x="107" y="17.9062" width="5.83029" height="1.54362" transform="rotate(180 107 17.9062)" fill="#FFF8BA"/>
<path d="M107 22.2285H101.17V17.9064H107C104.7 19.5193 104.442 20.4572 107 22.2285Z" fill="#FFF8BA"/>
<rect x="107" y="23.7715" width="5.83029" height="1.54362" transform="rotate(180 107 23.7715)" fill="#FFF8BA"/>
<path d="M107 28.0938H101.17V23.7716H107C104.7 25.3845 104.442 26.3224 107 28.0938Z" fill="#FFF8BA"/>
<rect x="107" y="29.6377" width="5.83029" height="1.54362" transform="rotate(180 107 29.6377)" fill="#FFF8BA"/>
<path d="M107 33.96H101.17V29.6378H107C104.7 31.2507 104.442 32.1886 107 33.96Z" fill="#FFF8BA"/>
<rect x="107" y="35.5029" width="5.83029" height="1.54362" transform="rotate(180 107 35.5029)" fill="#FFF8BA"/>
<path d="M107 39.8262H101.17V35.504H107C104.7 37.1169 104.442 38.0548 107 39.8262Z" fill="#FFF8BA"/>
<rect x="107" y="41.3691" width="5.83029" height="1.54362" transform="rotate(180 107 41.3691)" fill="#FFF8BA"/>
<path d="M102.919 42.7584C102.055 43.5431 101.692 44.3081 101.17 46V41.3691H107C105.029 41.5399 104.123 41.8312 102.919 42.7584Z" fill="#FFF8BA"/>
</svg>
