<svg width="107" height="46" viewBox="0 0 107 46" fill="none" xmlns="http://www.w3.org/2000/svg">
<path d="M102.919 3.24161C102.055 2.45689 101.692 1.6919 101.17 0V4.63087H107C105.029 4.46009 104.123 4.16883 102.919 3.24161Z" fill="#67659F" fill-opacity="0.35"/>
<rect x="107" y="6.17383" width="5.83029" height="1.54362" transform="rotate(180 107 6.17383)" fill="#67659F" fill-opacity="0.35"/>
<path d="M107 10.4971H101.17V6.17492L107 6.17492C104.7 7.78781 104.442 8.72571 107 10.4971Z" fill="#67659F" fill-opacity="0.35"/>
<rect x="107" y="12.04" width="5.83029" height="1.54362" transform="rotate(180 107 12.04)" fill="#67659F" fill-opacity="0.35"/>
<path d="M107 16.3623H101.17V12.0402H107C104.7 13.653 104.442 14.5909 107 16.3623Z" fill="#67659F" fill-opacity="0.35"/>
<rect x="107" y="17.9062" width="5.83029" height="1.54362" transform="rotate(180 107 17.9062)" fill="#67659F" fill-opacity="0.35"/>
<path d="M107 22.2285H101.17V17.9064H107C104.7 19.5193 104.442 20.4572 107 22.2285Z" fill="#67659F" fill-opacity="0.35"/>
<rect x="107" y="23.7715" width="5.83029" height="1.54362" transform="rotate(180 107 23.7715)" fill="#67659F" fill-opacity="0.35"/>
<path d="M107 28.0938H101.17V23.7716H107C104.7 25.3845 104.442 26.3224 107 28.0938Z" fill="#67659F" fill-opacity="0.35"/>
<rect x="107" y="29.6377" width="5.83029" height="1.54362" transform="rotate(180 107 29.6377)" fill="#67659F" fill-opacity="0.35"/>
<path d="M107 33.96H101.17V29.6378H107C104.7 31.2507 104.442 32.1886 107 33.96Z" fill="#67659F" fill-opacity="0.35"/>
<rect x="107" y="35.5029" width="5.83029" height="1.54362" transform="rotate(180 107 35.5029)" fill="#67659F" fill-opacity="0.35"/>
<path d="M107 39.8262H101.17V35.504H107C104.7 37.1169 104.442 38.0548 107 39.8262Z" fill="#67659F" fill-opacity="0.35"/>
<rect x="107" y="41.3691" width="5.83029" height="1.54362" transform="rotate(180 107 41.3691)" fill="#67659F" fill-opacity="0.35"/>
<path d="M102.919 42.7584C102.055 43.5431 101.692 44.3081 101.17 46V41.3691H107C105.029 41.5399 104.123 41.8312 102.919 42.7584Z" fill="#67659F" fill-opacity="0.35"/>
<path d="M4.5812 3.24161C5.44548 2.45689 5.80758 1.6919 6.33029 0V4.63087H0.5C2.47073 4.46009 3.37741 4.16883 4.5812 3.24161Z" fill="#67659F" fill-opacity="0.35"/>
<rect width="5.83029" height="1.54362" transform="matrix(1 0 0 -1 0.5 6.17383)" fill="#67659F" fill-opacity="0.35"/>
<path d="M0.5 10.4971H6.33029L6.33029 6.17492H0.5C2.80002 7.78781 3.0575 8.72571 0.5 10.4971Z" fill="#67659F" fill-opacity="0.35"/>
<rect width="5.83029" height="1.54362" transform="matrix(1 0 0 -1 0.5 12.04)" fill="#67659F" fill-opacity="0.35"/>
<path d="M0.5 16.3623H6.33029L6.33029 12.0402H0.5C2.80002 13.653 3.0575 14.5909 0.5 16.3623Z" fill="#67659F" fill-opacity="0.35"/>
<rect width="5.83029" height="1.54362" transform="matrix(1 0 0 -1 0.5 17.9062)" fill="#67659F" fill-opacity="0.35"/>
<path d="M0.5 22.2285H6.33029L6.33029 17.9064H0.5C2.80002 19.5193 3.0575 20.4572 0.5 22.2285Z" fill="#67659F" fill-opacity="0.35"/>
<rect width="5.83029" height="1.54362" transform="matrix(1 0 0 -1 0.5 23.7715)" fill="#67659F" fill-opacity="0.35"/>
<path d="M0.5 28.0938H6.33029L6.33029 23.7716H0.5C2.80002 25.3845 3.0575 26.3224 0.5 28.0938Z" fill="#67659F" fill-opacity="0.35"/>
<rect width="5.83029" height="1.54362" transform="matrix(1 0 0 -1 0.5 29.6377)" fill="#67659F" fill-opacity="0.35"/>
<path d="M0.5 33.96H6.33029L6.33029 29.6378H0.5C2.80002 31.2507 3.0575 32.1886 0.5 33.96Z" fill="#67659F" fill-opacity="0.35"/>
<rect width="5.83029" height="1.54362" transform="matrix(1 0 0 -1 0.5 35.5029)" fill="#67659F" fill-opacity="0.35"/>
<path d="M0.5 39.8262H6.33029L6.33029 35.504H0.5C2.80002 37.1169 3.0575 38.0548 0.5 39.8262Z" fill="#67659F" fill-opacity="0.35"/>
<rect width="5.83029" height="1.54362" transform="matrix(1 0 0 -1 0.5 41.3691)" fill="#67659F" fill-opacity="0.35"/>
<path d="M4.5812 42.7584C5.44548 43.5431 5.80758 44.3081 6.33029 46V41.3691H0.5C2.47073 41.5399 3.37741 41.8312 4.5812 42.7584Z" fill="#67659F" fill-opacity="0.35"/>
<path d="M5.5 0C43.3809 0 64.6191 0 102.5 0V46H5.5V0Z" fill="#67659F" fill-opacity="0.35"/>
<line x1="15.5" y1="40" x2="93.5" y2="40" stroke="#67659F" stroke-opacity="0.35" stroke-width="2" stroke-linecap="round" stroke-dasharray="4 4 4 4"/>
<line x1="15.5" y1="6" x2="93.5" y2="6" stroke="#67659F" stroke-opacity="0.35" stroke-width="2" stroke-linecap="round" stroke-dasharray="4 4 4 4"/>
<line x1="97.5039" y1="9.99609" x2="97.6131" y2="37.9959" stroke="#67659F" stroke-opacity="0.35" stroke-width="2" stroke-linecap="round" stroke-dasharray="4 4 4 4"/>
<line x1="11.5039" y1="8.99609" x2="11.6131" y2="36.9959" stroke="#67659F" stroke-opacity="0.35" stroke-width="2" stroke-linecap="round" stroke-dasharray="4 4 4 4"/>
<path d="M36.3665 23.7C36.3665 24.588 36.5645 25.368 36.9605 26.04C37.3685 26.712 37.8965 27.234 38.5445 27.606C39.2045 27.966 39.9185 28.146 40.6865 28.146C41.2865 28.146 41.8265 28.068 42.3065 27.912C42.7865 27.756 43.2185 27.546 43.6025 27.282C43.9985 27.006 44.3405 26.7 44.6285 26.364V28.884C44.1005 29.316 43.5305 29.646 42.9185 29.874C42.3065 30.102 41.5385 30.216 40.6145 30.216C39.6905 30.216 38.8265 30.06 38.0225 29.748C37.2305 29.436 36.5405 28.986 35.9525 28.398C35.3645 27.81 34.9025 27.12 34.5665 26.328C34.2425 25.524 34.0805 24.648 34.0805 23.7C34.0805 22.752 34.2425 21.882 34.5665 21.09C34.9025 20.286 35.3645 19.59 35.9525 19.002C36.5405 18.414 37.2305 17.964 38.0225 17.652C38.8265 17.34 39.6905 17.184 40.6145 17.184C41.5385 17.184 42.3065 17.298 42.9185 17.526C43.5305 17.754 44.1005 18.084 44.6285 18.516V21.036C44.3405 20.7 43.9985 20.4 43.6025 20.136C43.2185 19.86 42.7865 19.644 42.3065 19.488C41.8265 19.332 41.2865 19.254 40.6865 19.254C39.9185 19.254 39.2045 19.44 38.5445 19.812C37.8965 20.172 37.3685 20.688 36.9605 21.36C36.5645 22.02 36.3665 22.8 36.3665 23.7ZM47.2458 17.4H49.3698V28.092H54.3738V30H47.2458V17.4ZM55.8218 17.4H57.9458V25.77C57.9458 26.55 58.1498 27.18 58.5578 27.66C58.9778 28.128 59.5958 28.362 60.4118 28.362C61.2158 28.362 61.8278 28.128 62.2478 27.66C62.6678 27.18 62.8778 26.55 62.8778 25.77V17.4H65.0018V25.86C65.0018 26.556 64.8878 27.18 64.6598 27.732C64.4438 28.272 64.1318 28.734 63.7238 29.118C63.3158 29.502 62.8298 29.796 62.2658 30C61.7018 30.204 61.0838 30.306 60.4118 30.306C59.7398 30.306 59.1218 30.204 58.5578 30C57.9938 29.796 57.5018 29.502 57.0818 29.118C56.6738 28.734 56.3618 28.272 56.1458 27.732C55.9298 27.18 55.8218 26.556 55.8218 25.86V17.4ZM69.0383 30V28.128H75.3923V30H69.0383ZM69.0383 19.272V17.4H75.3923V19.272H69.0383ZM69.0383 24.168V22.332H75.0323V24.168H69.0383ZM67.7243 17.4H69.8123V30H67.7243V17.4Z" fill="#67659F" fill-opacity="0.35"/>
</svg>
