<svg width="107" height="46" viewBox="0 0 107 46" fill="none" xmlns="http://www.w3.org/2000/svg">
<path d="M102.919 3.24161C102.055 2.45689 101.692 1.6919 101.17 0V4.63087H107C105.029 4.46009 104.123 4.16883 102.919 3.24161Z" fill="#67659F" fill-opacity="0.35"/>
<rect x="107" y="6.17383" width="5.83029" height="1.54362" transform="rotate(180 107 6.17383)" fill="#67659F" fill-opacity="0.35"/>
<path d="M107 10.4971H101.17V6.17492L107 6.17492C104.7 7.78781 104.442 8.72571 107 10.4971Z" fill="#67659F" fill-opacity="0.35"/>
<rect x="107" y="12.04" width="5.83029" height="1.54362" transform="rotate(180 107 12.04)" fill="#67659F" fill-opacity="0.35"/>
<path d="M107 16.3623H101.17V12.0402H107C104.7 13.653 104.442 14.5909 107 16.3623Z" fill="#67659F" fill-opacity="0.35"/>
<rect x="107" y="17.9062" width="5.83029" height="1.54362" transform="rotate(180 107 17.9062)" fill="#67659F" fill-opacity="0.35"/>
<path d="M107 22.2285H101.17V17.9064H107C104.7 19.5193 104.442 20.4572 107 22.2285Z" fill="#67659F" fill-opacity="0.35"/>
<rect x="107" y="23.7715" width="5.83029" height="1.54362" transform="rotate(180 107 23.7715)" fill="#67659F" fill-opacity="0.35"/>
<path d="M107 28.0938H101.17V23.7716H107C104.7 25.3845 104.442 26.3224 107 28.0938Z" fill="#67659F" fill-opacity="0.35"/>
<rect x="107" y="29.6377" width="5.83029" height="1.54362" transform="rotate(180 107 29.6377)" fill="#67659F" fill-opacity="0.35"/>
<path d="M107 33.96H101.17V29.6378H107C104.7 31.2507 104.442 32.1886 107 33.96Z" fill="#67659F" fill-opacity="0.35"/>
<rect x="107" y="35.5029" width="5.83029" height="1.54362" transform="rotate(180 107 35.5029)" fill="#67659F" fill-opacity="0.35"/>
<path d="M107 39.8262H101.17V35.504H107C104.7 37.1169 104.442 38.0548 107 39.8262Z" fill="#67659F" fill-opacity="0.35"/>
<rect x="107" y="41.3691" width="5.83029" height="1.54362" transform="rotate(180 107 41.3691)" fill="#67659F" fill-opacity="0.35"/>
<path d="M102.919 42.7584C102.055 43.5431 101.692 44.3081 101.17 46V41.3691H107C105.029 41.5399 104.123 41.8312 102.919 42.7584Z" fill="#67659F" fill-opacity="0.35"/>
<path d="M4.5812 3.24161C5.44548 2.45689 5.80758 1.6919 6.33029 0V4.63087H0.5C2.47073 4.46009 3.37741 4.16883 4.5812 3.24161Z" fill="#67659F" fill-opacity="0.35"/>
<rect width="5.83029" height="1.54362" transform="matrix(1 0 0 -1 0.5 6.17383)" fill="#67659F" fill-opacity="0.35"/>
<path d="M0.5 10.4971H6.33029L6.33029 6.17492H0.5C2.80002 7.78781 3.0575 8.72571 0.5 10.4971Z" fill="#67659F" fill-opacity="0.35"/>
<rect width="5.83029" height="1.54362" transform="matrix(1 0 0 -1 0.5 12.04)" fill="#67659F" fill-opacity="0.35"/>
<path d="M0.5 16.3623H6.33029L6.33029 12.0402H0.5C2.80002 13.653 3.0575 14.5909 0.5 16.3623Z" fill="#67659F" fill-opacity="0.35"/>
<rect width="5.83029" height="1.54362" transform="matrix(1 0 0 -1 0.5 17.9062)" fill="#67659F" fill-opacity="0.35"/>
<path d="M0.5 22.2285H6.33029L6.33029 17.9064H0.5C2.80002 19.5193 3.0575 20.4572 0.5 22.2285Z" fill="#67659F" fill-opacity="0.35"/>
<rect width="5.83029" height="1.54362" transform="matrix(1 0 0 -1 0.5 23.7715)" fill="#67659F" fill-opacity="0.35"/>
<path d="M0.5 28.0938H6.33029L6.33029 23.7716H0.5C2.80002 25.3845 3.0575 26.3224 0.5 28.0938Z" fill="#67659F" fill-opacity="0.35"/>
<rect width="5.83029" height="1.54362" transform="matrix(1 0 0 -1 0.5 29.6377)" fill="#67659F" fill-opacity="0.35"/>
<path d="M0.5 33.96H6.33029L6.33029 29.6378H0.5C2.80002 31.2507 3.0575 32.1886 0.5 33.96Z" fill="#67659F" fill-opacity="0.35"/>
<rect width="5.83029" height="1.54362" transform="matrix(1 0 0 -1 0.5 35.5029)" fill="#67659F" fill-opacity="0.35"/>
<path d="M0.5 39.8262H6.33029L6.33029 35.504H0.5C2.80002 37.1169 3.0575 38.0548 0.5 39.8262Z" fill="#67659F" fill-opacity="0.35"/>
<rect width="5.83029" height="1.54362" transform="matrix(1 0 0 -1 0.5 41.3691)" fill="#67659F" fill-opacity="0.35"/>
<path d="M4.5812 42.7584C5.44548 43.5431 5.80758 44.3081 6.33029 46V41.3691H0.5C2.47073 41.5399 3.37741 41.8312 4.5812 42.7584Z" fill="#67659F" fill-opacity="0.35"/>
<path d="M5.5 0C43.3809 0 64.6191 0 102.5 0V46H5.5V0Z" fill="#67659F" fill-opacity="0.35"/>
<line x1="15.5" y1="40" x2="93.5" y2="40" stroke="#67659F" stroke-opacity="0.35" stroke-width="2" stroke-linecap="round" stroke-dasharray="4 4 4 4"/>
<line x1="15.5" y1="6" x2="93.5" y2="6" stroke="#67659F" stroke-opacity="0.35" stroke-width="2" stroke-linecap="round" stroke-dasharray="4 4 4 4"/>
<line x1="97.5039" y1="9.99609" x2="97.6131" y2="37.9959" stroke="#67659F" stroke-opacity="0.35" stroke-width="2" stroke-linecap="round" stroke-dasharray="4 4 4 4"/>
<line x1="11.5039" y1="8.99609" x2="11.6131" y2="36.9959" stroke="#67659F" stroke-opacity="0.35" stroke-width="2" stroke-linecap="round" stroke-dasharray="4 4 4 4"/>
<path d="M37.5695 25.896C37.5695 26.628 37.4435 27.264 37.1915 27.804C36.9395 28.344 36.5915 28.794 36.1475 29.154C35.7035 29.502 35.1995 29.766 34.6355 29.946C34.0835 30.114 33.5015 30.198 32.8895 30.198C32.1215 30.198 31.4435 30.096 30.8555 29.892C30.2675 29.688 29.7575 29.418 29.3255 29.082C28.8935 28.734 28.5155 28.362 28.1915 27.966L29.4335 26.436C29.6855 26.76 29.9795 27.06 30.3155 27.336C30.6635 27.6 31.0355 27.816 31.4315 27.984C31.8275 28.14 32.2235 28.218 32.6195 28.218C33.1955 28.218 33.6815 28.122 34.0775 27.93C34.4735 27.738 34.7735 27.456 34.9775 27.084C35.1935 26.712 35.3015 26.274 35.3015 25.77C35.3015 25.254 35.1815 24.816 34.9415 24.456C34.7015 24.096 34.3775 23.82 33.9695 23.628C33.5615 23.436 33.1115 23.34 32.6195 23.34C32.2595 23.34 31.8995 23.37 31.5395 23.43C31.1915 23.478 30.8315 23.574 30.4595 23.718C30.0995 23.862 29.7035 24.066 29.2715 24.33L30.9815 17.4H37.4435V19.272H32.5835L31.7915 22.152C32.1035 21.996 32.4275 21.882 32.7635 21.81C33.0995 21.738 33.4415 21.702 33.7895 21.702C34.4855 21.702 35.1215 21.876 35.6975 22.224C36.2735 22.572 36.7295 23.058 37.0655 23.682C37.4015 24.306 37.5695 25.044 37.5695 25.896ZM41.0922 23.7C41.0922 24.372 41.1582 24.99 41.2902 25.554C41.4222 26.118 41.6082 26.604 41.8482 27.012C42.1002 27.42 42.4002 27.738 42.7482 27.966C43.0962 28.182 43.4802 28.29 43.9002 28.29C44.3442 28.29 44.7342 28.182 45.0702 27.966C45.4182 27.738 45.7122 27.42 45.9522 27.012C46.2042 26.604 46.3962 26.118 46.5282 25.554C46.6602 24.99 46.7262 24.372 46.7262 23.7C46.7262 23.028 46.6602 22.41 46.5282 21.846C46.3962 21.282 46.2042 20.796 45.9522 20.388C45.7122 19.98 45.4182 19.668 45.0702 19.452C44.7342 19.224 44.3442 19.11 43.9002 19.11C43.4802 19.11 43.0962 19.224 42.7482 19.452C42.4002 19.668 42.1002 19.98 41.8482 20.388C41.6082 20.796 41.4222 21.282 41.2902 21.846C41.1582 22.41 41.0922 23.028 41.0922 23.7ZM39.0042 23.7C39.0042 22.392 39.2082 21.252 39.6162 20.28C40.0362 19.308 40.6122 18.552 41.3442 18.012C42.0882 17.472 42.9402 17.202 43.9002 17.202C44.8842 17.202 45.7422 17.472 46.4742 18.012C47.2182 18.552 47.7942 19.308 48.2022 20.28C48.6102 21.252 48.8142 22.392 48.8142 23.7C48.8142 25.008 48.6102 26.148 48.2022 27.12C47.7942 28.092 47.2182 28.848 46.4742 29.388C45.7422 29.928 44.8842 30.198 43.9002 30.198C42.9402 30.198 42.0882 29.928 41.3442 29.388C40.6122 28.848 40.0362 28.092 39.6162 27.12C39.2082 26.148 39.0042 25.008 39.0042 23.7ZM57.2922 17.4H59.2002L51.7662 32.7H49.8042L57.2922 17.4ZM69.4738 25.896C69.4738 26.628 69.3478 27.264 69.0958 27.804C68.8438 28.344 68.4958 28.794 68.0518 29.154C67.6078 29.502 67.1038 29.766 66.5398 29.946C65.9878 30.114 65.4058 30.198 64.7938 30.198C64.0258 30.198 63.3478 30.096 62.7598 29.892C62.1718 29.688 61.6618 29.418 61.2298 29.082C60.7978 28.734 60.4198 28.362 60.0958 27.966L61.3378 26.436C61.5898 26.76 61.8838 27.06 62.2198 27.336C62.5678 27.6 62.9398 27.816 63.3358 27.984C63.7318 28.14 64.1278 28.218 64.5238 28.218C65.0998 28.218 65.5858 28.122 65.9818 27.93C66.3778 27.738 66.6778 27.456 66.8818 27.084C67.0978 26.712 67.2058 26.274 67.2058 25.77C67.2058 25.254 67.0858 24.816 66.8458 24.456C66.6058 24.096 66.2818 23.82 65.8738 23.628C65.4658 23.436 65.0158 23.34 64.5238 23.34C64.1638 23.34 63.8038 23.37 63.4438 23.43C63.0958 23.478 62.7358 23.574 62.3638 23.718C62.0038 23.862 61.6078 24.066 61.1758 24.33L62.8858 17.4H69.3478V19.272H64.4878L63.6958 22.152C64.0078 21.996 64.3318 21.882 64.6678 21.81C65.0038 21.738 65.3458 21.702 65.6938 21.702C66.3898 21.702 67.0258 21.876 67.6018 22.224C68.1778 22.572 68.6338 23.058 68.9698 23.682C69.3058 24.306 69.4738 25.044 69.4738 25.896ZM72.9965 23.7C72.9965 24.372 73.0625 24.99 73.1945 25.554C73.3265 26.118 73.5125 26.604 73.7525 27.012C74.0045 27.42 74.3045 27.738 74.6525 27.966C75.0005 28.182 75.3845 28.29 75.8045 28.29C76.2485 28.29 76.6385 28.182 76.9745 27.966C77.3225 27.738 77.6165 27.42 77.8565 27.012C78.1085 26.604 78.3005 26.118 78.4325 25.554C78.5645 24.99 78.6305 24.372 78.6305 23.7C78.6305 23.028 78.5645 22.41 78.4325 21.846C78.3005 21.282 78.1085 20.796 77.8565 20.388C77.6165 19.98 77.3225 19.668 76.9745 19.452C76.6385 19.224 76.2485 19.11 75.8045 19.11C75.3845 19.11 75.0005 19.224 74.6525 19.452C74.3045 19.668 74.0045 19.98 73.7525 20.388C73.5125 20.796 73.3265 21.282 73.1945 21.846C73.0625 22.41 72.9965 23.028 72.9965 23.7ZM70.9085 23.7C70.9085 22.392 71.1125 21.252 71.5205 20.28C71.9405 19.308 72.5165 18.552 73.2485 18.012C73.9925 17.472 74.8445 17.202 75.8045 17.202C76.7885 17.202 77.6465 17.472 78.3785 18.012C79.1225 18.552 79.6985 19.308 80.1065 20.28C80.5145 21.252 80.7185 22.392 80.7185 23.7C80.7185 25.008 80.5145 26.148 80.1065 27.12C79.6985 28.092 79.1225 28.848 78.3785 29.388C77.6465 29.928 76.7885 30.198 75.8045 30.198C74.8445 30.198 73.9925 29.928 73.2485 29.388C72.5165 28.848 71.9405 28.092 71.5205 27.12C71.1125 26.148 70.9085 25.008 70.9085 23.7Z" fill="#67659F" fill-opacity="0.35"/>
</svg>
