<svg width="20" height="21" viewBox="0 0 20 21" fill="none" xmlns="http://www.w3.org/2000/svg">
<circle cx="10" cy="10.5" r="9.5" fill="#2B2A4C" stroke="#8184F8"/>
<path d="M13.14 12.28C13.14 12.84 13.0513 13.33 12.874 13.75C12.706 14.17 12.468 14.52 12.16 14.8C11.8613 15.08 11.5113 15.29 11.11 15.43C10.7087 15.57 10.2793 15.64 9.822 15.64C9.262 15.64 8.772 15.5513 8.352 15.374C7.94133 15.1967 7.58667 14.954 7.288 14.646C6.99867 14.3287 6.756 13.974 6.56 13.582L7.218 13.148C7.37667 13.4747 7.57733 13.7733 7.82 14.044C8.072 14.3147 8.366 14.5293 8.702 14.688C9.038 14.8373 9.41133 14.912 9.822 14.912C10.326 14.912 10.7647 14.8093 11.138 14.604C11.5207 14.3893 11.8147 14.086 12.02 13.694C12.2347 13.302 12.342 12.8307 12.342 12.28C12.342 11.7853 12.2347 11.3513 12.02 10.978C11.8147 10.6047 11.5347 10.3153 11.18 10.11C10.8253 9.89533 10.4193 9.788 9.962 9.788C9.61667 9.788 9.29933 9.82533 9.01 9.9C8.72067 9.97467 8.44067 10.096 8.17 10.264C7.89933 10.432 7.61467 10.6513 7.316 10.922L8.604 5.7H13.224V6.386H9.192L8.352 9.788C8.576 9.592 8.85133 9.42867 9.178 9.298C9.514 9.158 9.878 9.088 10.27 9.088C10.8113 9.088 11.2967 9.22333 11.726 9.494C12.1647 9.76467 12.51 10.138 12.762 10.614C13.014 11.09 13.14 11.6453 13.14 12.28Z" fill="white"/>
</svg>
