<svg width="34" height="33" viewBox="0 0 34 33" fill="none" xmlns="http://www.w3.org/2000/svg">
<circle cx="17" cy="16.5" r="16" fill="#323059" stroke="#8184F8"/>
<path d="M11.94 23L18.48 16.1C18.7867 15.7533 19.06 15.4133 19.3 15.08C19.5533 14.7467 19.7467 14.3933 19.88 14.02C20.0267 13.6333 20.1 13.22 20.1 12.78C20.1 12.4333 20.04 12.0867 19.92 11.74C19.8 11.3933 19.6133 11.08 19.36 10.8C19.1067 10.5067 18.7867 10.2733 18.4 10.1C18.0267 9.91333 17.58 9.82 17.06 9.82C16.38 9.82 15.7933 9.98667 15.3 10.32C14.8067 10.64 14.4267 11.1 14.16 11.7C13.8933 12.3 13.76 13 13.76 13.8H12.66C12.66 12.8 12.8333 11.9267 13.18 11.18C13.54 10.42 14.0467 9.83333 14.7 9.42C15.3667 8.99333 16.1533 8.78 17.06 8.78C17.7933 8.78 18.42 8.90667 18.94 9.16C19.4733 9.41333 19.9067 9.74 20.24 10.14C20.5867 10.5267 20.84 10.9533 21 11.42C21.16 11.8733 21.24 12.3133 21.24 12.74C21.24 13.5 21.0533 14.2133 20.68 14.88C20.32 15.5467 19.8733 16.1533 19.34 16.7L14.24 21.96H21.5V23H11.94Z" fill="white"/>
</svg>
