<svg width="20" height="21" viewBox="0 0 20 21" fill="none" xmlns="http://www.w3.org/2000/svg">
<circle cx="10" cy="10.5" r="9.5" fill="#2B2A4C" stroke="#8184F8"/>
<path d="M7.442 12.336C7.442 12.84 7.54467 13.288 7.75 13.68C7.96467 14.0627 8.25867 14.3707 8.632 14.604C9.00533 14.828 9.43467 14.94 9.92 14.94C10.4053 14.94 10.8347 14.828 11.208 14.604C11.5813 14.3707 11.8707 14.0627 12.076 13.68C12.2907 13.288 12.398 12.84 12.398 12.336C12.398 11.8507 12.2907 11.4167 12.076 11.034C11.8613 10.642 11.572 10.3387 11.208 10.124C10.844 9.9 10.4333 9.788 9.976 9.788C9.46267 9.788 9.01467 9.90467 8.632 10.138C8.25867 10.362 7.96467 10.67 7.75 11.062C7.54467 11.4447 7.442 11.8693 7.442 12.336ZM10.62 5.7H11.586L8.394 10.054L8.338 10.012C8.57133 9.732 8.84667 9.53133 9.164 9.41C9.48133 9.27933 9.84067 9.214 10.242 9.214C10.6433 9.214 11.0167 9.29333 11.362 9.452C11.7167 9.61067 12.0247 9.83467 12.286 10.124C12.5567 10.404 12.7667 10.7353 12.916 11.118C13.0653 11.4913 13.14 11.8973 13.14 12.336C13.14 12.9893 13 13.5633 12.72 14.058C12.4493 14.5527 12.0713 14.94 11.586 15.22C11.11 15.5 10.5547 15.64 9.92 15.64C9.29467 15.64 8.73933 15.5 8.254 15.22C7.76867 14.94 7.386 14.5527 7.106 14.058C6.83533 13.5633 6.7 12.9893 6.7 12.336C6.7 11.9347 6.76533 11.5473 6.896 11.174C7.036 10.8007 7.19933 10.4833 7.386 10.222L10.62 5.7Z" fill="white"/>
</svg>
