<svg width="21" height="21" viewBox="0 0 21 21" fill="none" xmlns="http://www.w3.org/2000/svg">
<circle cx="10.5" cy="10.5" r="9.5" fill="#2B2A4C" stroke="#8184F8"/>
<path d="M12.898 8.864C12.898 8.36 12.7907 7.912 12.576 7.52C12.3707 7.128 12.0813 6.82 11.708 6.596C11.3347 6.372 10.9053 6.26 10.42 6.26C9.93467 6.26 9.50533 6.372 9.132 6.596C8.75867 6.82 8.46467 7.128 8.25 7.52C8.04467 7.912 7.942 8.36 7.942 8.864C7.942 9.34933 8.04933 9.78333 8.264 10.166C8.47867 10.5487 8.768 10.852 9.132 11.076C9.50533 11.3 9.916 11.412 10.364 11.412C10.8773 11.412 11.3207 11.2953 11.694 11.062C12.0767 10.8287 12.3707 10.5207 12.576 10.138C12.7907 9.75533 12.898 9.33067 12.898 8.864ZM9.72 15.5H8.754L11.946 11.146L12.002 11.188C11.7687 11.468 11.4933 11.6733 11.176 11.804C10.8587 11.9253 10.4993 11.986 10.098 11.986C9.69667 11.986 9.31867 11.9067 8.964 11.748C8.61867 11.5893 8.31067 11.37 8.04 11.09C7.77867 10.8007 7.57333 10.4693 7.424 10.096C7.27467 9.71333 7.2 9.30267 7.2 8.864C7.2 8.21067 7.33533 7.63667 7.606 7.142C7.886 6.64733 8.26867 6.26 8.754 5.98C9.23933 5.7 9.79467 5.56 10.42 5.56C11.0547 5.56 11.61 5.7 12.086 5.98C12.5713 6.26 12.9493 6.64733 13.22 7.142C13.5 7.63667 13.64 8.21067 13.64 8.864C13.64 9.26533 13.57 9.65267 13.43 10.026C13.2993 10.3993 13.1407 10.7167 12.954 10.978L9.72 15.5Z" fill="white"/>
</svg>
