<svg width="34" height="34" viewBox="0 0 34 34" fill="none" xmlns="http://www.w3.org/2000/svg">
<circle cx="17" cy="17.085" r="16" fill="#323059" stroke="#8184F8"/>
<path d="M16.52 16.545V15.825C16.9733 15.825 17.4 15.7583 17.8 15.625C18.2 15.4916 18.5533 15.305 18.86 15.065C19.18 14.825 19.4267 14.5383 19.6 14.205C19.7867 13.8583 19.88 13.4783 19.88 13.065C19.88 12.585 19.7733 12.145 19.56 11.745C19.36 11.3316 19.06 11.005 18.66 10.765C18.2733 10.5116 17.7933 10.385 17.22 10.385C16.38 10.385 15.7 10.6383 15.18 11.145C14.66 11.6516 14.4 12.2916 14.4 13.065H13.34C13.34 12.3316 13.5 11.6916 13.82 11.145C14.1533 10.5983 14.6067 10.1716 15.18 9.86496C15.7667 9.54496 16.44 9.38496 17.2 9.38496C18 9.38496 18.68 9.55829 19.24 9.90496C19.8133 10.2516 20.2467 10.6983 20.54 11.245C20.8467 11.7916 21 12.385 21 13.025C21 13.705 20.7933 14.3116 20.38 14.845C19.98 15.3783 19.44 15.7983 18.76 16.105C18.0933 16.3983 17.3467 16.545 16.52 16.545ZM17.12 23.785C16.44 23.785 15.8267 23.685 15.28 23.485C14.7467 23.285 14.2867 23.0116 13.9 22.665C13.5267 22.305 13.24 21.8916 13.04 21.425C12.84 20.945 12.74 20.4316 12.74 19.885H13.86C13.86 20.4316 13.9867 20.925 14.24 21.365C14.5067 21.7916 14.8867 22.1316 15.38 22.385C15.8733 22.625 16.4533 22.745 17.12 22.745C17.76 22.745 18.3133 22.625 18.78 22.385C19.26 22.1316 19.6267 21.7916 19.88 21.365C20.1467 20.925 20.28 20.4183 20.28 19.845C20.28 19.3383 20.1667 18.8983 19.94 18.525C19.7267 18.1383 19.4333 17.8183 19.06 17.565C18.7 17.3116 18.3 17.125 17.86 17.005C17.42 16.8716 16.9733 16.805 16.52 16.805V16.085C17.1333 16.085 17.7267 16.165 18.3 16.325C18.8867 16.4716 19.4133 16.705 19.88 17.025C20.3467 17.3316 20.7133 17.7316 20.98 18.225C21.26 18.7183 21.4 19.2983 21.4 19.965C21.4 20.725 21.2133 21.3916 20.84 21.965C20.48 22.5383 19.98 22.985 19.34 23.305C18.7 23.625 17.96 23.785 17.12 23.785Z" fill="white"/>
</svg>
