<svg width="21" height="21" viewBox="0 0 21 21" fill="none" xmlns="http://www.w3.org/2000/svg">
<circle cx="10.5" cy="10.5" r="9.5" fill="#2B2A4C" stroke="#8184F8"/>
<path d="M7.648 8.01C7.648 7.562 7.76 7.156 7.984 6.792C8.21733 6.41867 8.52533 6.12 8.908 5.896C9.3 5.672 9.74333 5.56 10.238 5.56C10.7327 5.56 11.1713 5.672 11.554 5.896C11.946 6.12 12.254 6.41867 12.478 6.792C12.7113 7.156 12.828 7.562 12.828 8.01C12.828 8.374 12.758 8.71 12.618 9.018C12.4873 9.31667 12.3053 9.57333 12.072 9.788C11.8387 10.0027 11.5633 10.1707 11.246 10.292C10.938 10.404 10.602 10.46 10.238 10.46C9.874 10.46 9.53333 10.404 9.216 10.292C8.908 10.1707 8.63733 10.0027 8.404 9.788C8.17067 9.57333 7.984 9.31667 7.844 9.018C7.71333 8.71 7.648 8.374 7.648 8.01ZM8.39 8.094C8.39 8.458 8.47867 8.78 8.656 9.06C8.84267 9.34 9.076 9.55933 9.356 9.718C9.64533 9.87667 9.93933 9.956 10.238 9.956C10.5367 9.956 10.826 9.87667 11.106 9.718C11.3953 9.55933 11.6287 9.34 11.806 9.06C11.9927 8.78 12.086 8.458 12.086 8.094C12.086 7.74867 12.0067 7.436 11.848 7.156C11.6893 6.876 11.47 6.65667 11.19 6.498C10.9193 6.33 10.602 6.246 10.238 6.246C9.88333 6.246 9.566 6.33 9.286 6.498C9.006 6.65667 8.78667 6.876 8.628 7.156C8.46933 7.436 8.39 7.74867 8.39 8.094ZM7.326 12.868C7.326 12.448 7.40533 12.07 7.564 11.734C7.72267 11.398 7.93733 11.1133 8.208 10.88C8.47867 10.6373 8.78667 10.4553 9.132 10.334C9.48667 10.2033 9.85533 10.138 10.238 10.138C10.6207 10.138 10.9847 10.2033 11.33 10.334C11.6847 10.4553 11.9973 10.6373 12.268 10.88C12.5387 11.1133 12.7533 11.398 12.912 11.734C13.0707 12.07 13.15 12.448 13.15 12.868C13.15 13.2507 13.08 13.61 12.94 13.946C12.8 14.282 12.5993 14.576 12.338 14.828C12.086 15.08 11.7827 15.2807 11.428 15.43C11.0733 15.57 10.6767 15.64 10.238 15.64C9.79933 15.64 9.40267 15.57 9.048 15.43C8.69333 15.2807 8.38533 15.08 8.124 14.828C7.872 14.576 7.676 14.282 7.536 13.946C7.396 13.61 7.326 13.2507 7.326 12.868ZM8.068 12.784C8.068 13.2227 8.16133 13.6053 8.348 13.932C8.544 14.2587 8.80533 14.5107 9.132 14.688C9.45867 14.8653 9.82733 14.954 10.238 14.954C10.6487 14.954 11.0173 14.8653 11.344 14.688C11.6707 14.5107 11.9273 14.2587 12.114 13.932C12.31 13.6053 12.408 13.2227 12.408 12.784C12.408 12.3733 12.3007 12.0093 12.086 11.692C11.8807 11.3653 11.61 11.1087 11.274 10.922C10.9473 10.7353 10.602 10.642 10.238 10.642C9.874 10.642 9.524 10.7353 9.188 10.922C8.86133 11.1087 8.59067 11.3653 8.376 11.692C8.17067 12.0093 8.068 12.3733 8.068 12.784Z" fill="white"/>
</svg>
