<svg width="21" height="23" viewBox="0 0 21 23" fill="none" xmlns="http://www.w3.org/2000/svg">
<g id="search">
<mask id="mask0_653_949" style="mask-type:alpha" maskUnits="userSpaceOnUse" x="0" y="0" width="21" height="23">
<rect id="Bounding box" y="0.863281" width="21" height="21.2726" fill="#D9D9D9"/>
</mask>
<g mask="url(#mask0_653_949)">
<path id="search_2" d="M17.15 19.4769L11.6375 13.8928C11.2 14.2474 10.6969 14.5281 10.1281 14.7349C9.55937 14.9417 8.95417 15.0451 8.3125 15.0451C6.72292 15.0451 5.3776 14.4874 4.27656 13.3721C3.17552 12.2568 2.625 10.894 2.625 9.28378C2.625 7.67356 3.17552 6.31079 4.27656 5.19546C5.3776 4.08013 6.72292 3.52246 8.3125 3.52246C9.90208 3.52246 11.2474 4.08013 12.3484 5.19546C13.4495 6.31079 14 7.67356 14 9.28378C14 9.93377 13.8979 10.5468 13.6938 11.123C13.4896 11.6991 13.2125 12.2088 12.8625 12.6519L18.375 18.236L17.15 19.4769ZM8.3125 13.2724C9.40625 13.2724 10.3359 12.8846 11.1016 12.109C11.8672 11.3335 12.25 10.3917 12.25 9.28378C12.25 8.17583 11.8672 7.23408 11.1016 6.45852C10.3359 5.68295 9.40625 5.29517 8.3125 5.29517C7.21875 5.29517 6.28906 5.68295 5.52344 6.45852C4.75781 7.23408 4.375 8.17583 4.375 9.28378C4.375 10.3917 4.75781 11.3335 5.52344 12.109C6.28906 12.8846 7.21875 13.2724 8.3125 13.2724Z" fill="white"/>
</g>
</g>
</svg>
